<svg width="21" height="27" viewBox="0 0 21 27" fill="none" xmlns="http://www.w3.org/2000/svg">
<path d="M20.0455 0H4.05682C3.92557 0 3.81818 0.108482 3.81818 0.241071V1.92857C3.81818 2.06116 3.92557 2.16964 4.05682 2.16964H18.8523V22.9018C18.8523 23.0344 18.9597 23.1429 19.0909 23.1429H20.7614C20.8926 23.1429 21 23.0344 21 22.9018V0.964286C21 0.430915 20.5734 0 20.0455 0ZM16.2273 3.85714H0.954545C0.426562 3.85714 0 4.28806 0 4.82143V20.8135C0 21.0696 0.10142 21.3137 0.280398 21.4945L5.44986 26.7167C5.51548 26.783 5.59006 26.8373 5.6706 26.8825V26.9397H5.79588C5.90028 26.9789 6.01065 27 6.12401 27H16.2273C16.7553 27 17.1818 26.5691 17.1818 26.0357V4.82143C17.1818 4.28806 16.7553 3.85714 16.2273 3.85714ZM5.66761 23.8721L3.09929 21.2746H5.66761V23.8721ZM15.0341 24.8304H7.5767V20.5513C7.5767 19.8854 7.04276 19.346 6.38352 19.346H2.14773V6.02679H15.0341V24.8304Z" fill="white"/>
</svg>
