<svg id="OBJECTS" xmlns="http://www.w3.org/2000/svg" viewBox="0 0 424.33 308.16"><defs><style>.cls-1{fill:#235a97;}.cls-2,.cls-20{fill:#03273f;}.cls-3,.cls-5{fill:#fff;}.cls-4{opacity:0.5;}.cls-5,.cls-8{stroke:#888cf0;}.cls-11,.cls-12,.cls-13,.cls-15,.cls-5,.cls-8{stroke-miterlimit:10;}.cls-5{stroke-width:0.88px;}.cls-6,.cls-8{fill:#888cf0;}.cls-7{fill:#ffc979;}.cls-8{stroke-width:0.18px;}.cls-14,.cls-18,.cls-9{fill:#001627;}.cls-9{opacity:0.2;}.cls-10{fill:#f1b762;}.cls-11{fill:#c68d42;stroke-width:1.79px;}.cls-11,.cls-12,.cls-15{stroke:#f1b762;}.cls-12,.cls-13,.cls-15{fill:none;}.cls-12{stroke-width:4.28px;}.cls-13{stroke:#959faf;stroke-width:1.07px;}.cls-13,.cls-15{stroke-linecap:round;}.cls-14{opacity:0.1;}.cls-15{stroke-width:2.14px;}.cls-16{fill:#edaa98;}.cls-17{fill:#ffc1ac;}.cls-19{fill:#03243a;}.cls-20{opacity:0.4;}.cls-21{fill:#6e7989;}</style></defs><title>programingGuy</title><polygon class="cls-1" points="71.2 192.17 54.41 224.82 55.03 229.72 304.44 231.9 304.44 225.37 287.03 191.63 71.2 192.17"/><polygon class="cls-2" points="54.41 224.82 55.03 229.72 304.44 231.9 304.44 225.37 54.41 224.82"/><polyline class="cls-2" points="64.12 25.97 302.36 23.67 289.16 178.67 68.77 174.33 60.24 21.5"/><polygon class="cls-1" points="60.65 21.42 60.24 21.5 68.77 169.13 289.16 173.47 302.36 23.67 60.65 21.42"/><polyline class="cls-3" points="69.55 27.32 293.04 29.32 280.87 167.6 77.43 163.59 69.55 27.32"/><g class="cls-4"><rect class="cls-5" x="115.44" y="51.29" width="159.1" height="107.85"/><rect class="cls-6" x="120.1" y="59.81" width="8.24" height="3.57"/><rect class="cls-6" x="120.1" y="66.64" width="8.24" height="3.57"/><rect class="cls-6" x="120.1" y="73.48" width="8.24" height="3.57"/><rect class="cls-6" x="120.1" y="80.32" width="8.24" height="3.57"/><rect class="cls-6" x="120.1" y="87.16" width="8.24" height="3.57"/><rect class="cls-6" x="120.1" y="93.99" width="8.24" height="3.57"/><rect class="cls-6" x="120.1" y="100.83" width="8.24" height="3.57"/><rect class="cls-6" x="120.1" y="107.67" width="8.24" height="3.57"/><rect class="cls-6" x="120.1" y="114.51" width="8.24" height="3.57"/><rect class="cls-6" x="120.1" y="121.34" width="8.24" height="3.57"/><rect class="cls-6" x="120.1" y="128.18" width="8.24" height="3.57"/><rect class="cls-6" x="120.1" y="135.02" width="8.24" height="3.57"/><rect class="cls-6" x="120.1" y="141.85" width="8.24" height="3.57"/><rect class="cls-6" x="120.1" y="148.69" width="8.24" height="3.57"/><rect class="cls-7" x="147.61" y="59.81" width="14.42" height="3.57"/><rect class="cls-6" x="165.85" y="59.81" width="67.83" height="3.57"/><rect class="cls-7" x="142.53" y="66.64" width="17.51" height="3.57"/><rect class="cls-6" x="164.31" y="66.64" width="75.77" height="3.57"/><rect class="cls-7" x="160.12" y="73.48" width="24.72" height="3.57"/><rect class="cls-6" x="188.37" y="73.48" width="60.03" height="3.57"/><rect class="cls-7" x="172.99" y="80.32" width="23.69" height="3.57"/><rect class="cls-6" x="201.24" y="80.32" width="60.1" height="3.57"/><rect class="cls-7" x="149.56" y="87.16" width="16.99" height="3.57"/><rect class="cls-6" x="170.75" y="87.16" width="68.82" height="3.57"/><rect class="cls-7" x="142.31" y="93.99" width="14.42" height="3.57"/><rect class="cls-6" x="160.56" y="93.99" width="73.13" height="3.57"/><rect class="cls-7" x="175.75" y="100.83" width="21.11" height="3.57"/><rect class="cls-6" x="201.65" y="100.83" width="56.17" height="3.57"/><rect class="cls-7" x="150.7" y="107.67" width="24.72" height="3.57"/><rect class="cls-6" x="179.54" y="107.67" width="65.92" height="3.57"/><rect class="cls-7" x="162.18" y="114.51" width="45.32" height="3.57"/><rect class="cls-6" x="211.61" y="114.51" width="55.32" height="3.57"/><rect class="cls-7" x="159.56" y="121.34" width="33.47" height="3.57"/><rect class="cls-6" x="198.7" y="121.34" width="54.99" height="3.57"/><rect class="cls-7" x="150.7" y="128.18" width="32.96" height="3.57"/><rect class="cls-6" x="187.78" y="128.18" width="60.03" height="3.57"/><rect class="cls-7" x="149.38" y="135.02" width="22.66" height="3.57"/><rect class="cls-6" x="177.04" y="135.02" width="61.94" height="3.57"/><rect class="cls-7" x="142.83" y="141.85" width="21.63" height="3.57"/><rect class="cls-6" x="168.14" y="141.85" width="83.79" height="3.57"/><rect class="cls-7" x="178.95" y="148.69" width="24.72" height="3.57"/><rect class="cls-6" x="208.38" y="148.69" width="58.85" height="3.57"/><rect class="cls-8" x="115.44" y="51.64" width="159.1" height="4.3"/></g><rect class="cls-3" x="82.44" y="38.29" width="159.1" height="107.85"/><g class="cls-4"><rect class="cls-5" x="82.44" y="38.29" width="159.1" height="107.85"/><rect class="cls-6" x="87.1" y="46.81" width="8.24" height="3.57"/><rect class="cls-6" x="87.1" y="53.64" width="8.24" height="3.57"/><rect class="cls-6" x="87.1" y="60.48" width="8.24" height="3.57"/><rect class="cls-6" x="87.1" y="67.32" width="8.24" height="3.57"/><rect class="cls-6" x="87.1" y="74.16" width="8.24" height="3.57"/><rect class="cls-6" x="87.1" y="80.99" width="8.24" height="3.57"/><rect class="cls-6" x="87.1" y="87.83" width="8.24" height="3.57"/><rect class="cls-6" x="87.1" y="94.67" width="8.24" height="3.57"/><rect class="cls-6" x="87.1" y="101.51" width="8.24" height="3.57"/><rect class="cls-6" x="87.1" y="108.34" width="8.24" height="3.57"/><rect class="cls-6" x="87.1" y="115.18" width="8.24" height="3.57"/><rect class="cls-6" x="87.1" y="122.02" width="8.24" height="3.57"/><rect class="cls-6" x="87.1" y="128.85" width="8.24" height="3.57"/><rect class="cls-6" x="87.1" y="135.69" width="8.24" height="3.57"/><rect class="cls-7" x="114.61" y="46.81" width="14.42" height="3.57"/><rect class="cls-6" x="132.85" y="46.81" width="67.83" height="3.57"/><rect class="cls-7" x="109.53" y="53.64" width="17.51" height="3.57"/><rect class="cls-6" x="131.31" y="53.64" width="75.77" height="3.57"/><rect class="cls-7" x="127.12" y="60.48" width="24.72" height="3.57"/><rect class="cls-6" x="155.37" y="60.48" width="60.03" height="3.57"/><rect class="cls-7" x="139.99" y="67.32" width="23.69" height="3.57"/><rect class="cls-6" x="168.24" y="67.32" width="60.1" height="3.57"/><rect class="cls-7" x="116.56" y="74.16" width="16.99" height="3.57"/><rect class="cls-6" x="137.75" y="74.16" width="68.82" height="3.57"/><rect class="cls-7" x="109.31" y="80.99" width="14.42" height="3.57"/><rect class="cls-6" x="127.56" y="80.99" width="73.13" height="3.57"/><rect class="cls-7" x="142.75" y="87.83" width="21.11" height="3.57"/><rect class="cls-6" x="168.65" y="87.83" width="56.17" height="3.57"/><rect class="cls-7" x="117.7" y="94.67" width="24.72" height="3.57"/><rect class="cls-6" x="146.54" y="94.67" width="65.92" height="3.57"/><rect class="cls-7" x="129.18" y="101.51" width="45.32" height="3.57"/><rect class="cls-6" x="178.61" y="101.51" width="55.32" height="3.57"/><rect class="cls-7" x="126.56" y="108.34" width="33.47" height="3.57"/><rect class="cls-6" x="165.7" y="108.34" width="54.99" height="3.57"/><rect class="cls-7" x="117.7" y="115.18" width="32.96" height="3.57"/><rect class="cls-6" x="154.78" y="115.18" width="60.03" height="3.57"/><rect class="cls-7" x="116.38" y="122.02" width="22.66" height="3.57"/><rect class="cls-6" x="144.04" y="122.02" width="61.94" height="3.57"/><rect class="cls-7" x="109.83" y="128.85" width="21.63" height="3.57"/><rect class="cls-6" x="135.14" y="128.85" width="83.79" height="3.57"/><rect class="cls-7" x="145.95" y="135.69" width="24.72" height="3.57"/><rect class="cls-6" x="175.38" y="135.69" width="58.85" height="3.57"/><rect class="cls-8" x="82.44" y="38.64" width="159.1" height="4.3"/></g><path class="cls-9" d="M68.38,409.5c0,3.12,9.09,5.66,20.31,5.66S109,412.62,109,409.5s-9.09-5.66-20.31-5.66S68.38,406.37,68.38,409.5Z" transform="translate(-62.42 -192.42)"/><polygon class="cls-10" points="11.48 177.57 13.18 215.78 45.77 215.14 48.37 177.71 11.48 177.57"/><path class="cls-11" d="M74.77,370.12c0,2.45,8.09,4.43,18.08,4.43s17.22-2,17.22-4.43-7.23-4.42-17.22-4.42S74.77,367.68,74.77,370.12Z" transform="translate(-62.42 -192.42)"/><path class="cls-10" d="M75.6,407.93c0,2.45,8.4,5.18,16.91,5.18s15.68-3.11,15.68-5.55-6.9-4.43-15.41-4.43S75.6,405.48,75.6,407.93Z" transform="translate(-62.42 -192.42)"/><circle class="cls-12" cx="11.95" cy="195.34" r="9.82"/><line class="cls-13" x1="39.22" y1="180.34" x2="39.22" y2="195.06"/><polygon class="cls-3" points="39.22 191.38 34.31 196.43 34.99 204.06 44.26 203.65 44.81 194.79 39.22 191.38"/><ellipse class="cls-9" cx="382.66" cy="209.74" rx="27.8" ry="7.66"/><path class="cls-10" d="M417.09,322.73a5.83,5.83,0,0,1-8.19,1h0a5.83,5.83,0,0,1-1-8.19L420.17,300a5.83,5.83,0,0,1,8.19-1h0a5.83,5.83,0,0,1,1,8.19Z" transform="translate(-62.42 -192.42)"/><path class="cls-14" d="M417.09,322.73a5.83,5.83,0,0,1-8.19,1h0a5.83,5.83,0,0,1-1-8.19L420.17,300a5.83,5.83,0,0,1,8.19-1h0a5.83,5.83,0,0,1,1,8.19Z" transform="translate(-62.42 -192.42)"/><path class="cls-10" d="M417.68,400c-.18,5.3,10.53,7.83,24.09,8.29s24.85-1.34,25-6.65-11.59-14.71-25.15-15.17S417.85,394.65,417.68,400Z" transform="translate(-62.42 -192.42)"/><path class="cls-14" d="M446.72,387c7.32,3.88,12.36,10.07,12.22,14.2-.12,3.6-3.88,5.84-9.62,7,10-.38,17.33-2.37,17.48-6.65C467,397,458,389.22,446.72,387Z" transform="translate(-62.42 -192.42)"/><line class="cls-15" x1="410.46" y1="101.57" x2="381.6" y2="196.73"/><line class="cls-15" x1="416.34" y1="101.57" x2="387.48" y2="196.73"/><line class="cls-15" x1="350.3" y1="132.23" x2="423.26" y2="107.94"/><line class="cls-15" x1="347.17" y1="127.25" x2="420.13" y2="102.96"/><path class="cls-10" d="M420.38,344.71a25.74,25.74,0,0,0,1.85-2.27c7.43-10.34,5.88-24.18-3.48-30.91s-23-3.8-30.41,6.55a26.73,26.73,0,0,0-1.56,2.46Z" transform="translate(-62.42 -192.42)"/><path class="cls-14" d="M418.75,311.53c-.19-.14-.4-.25-.6-.38,4.85,7.31,4.64,17.72-1.27,25.94a26,26,0,0,1-1.84,2.27L387.4,319.49c-.21.35-.42.7-.62,1.05l33.6,24.17a25.74,25.74,0,0,0,1.85-2.27C429.66,332.1,428.11,318.26,418.75,311.53Z" transform="translate(-62.42 -192.42)"/><path class="cls-3" d="M401.1,336c9.47,6.72,18.36,10.47,19.85,8.37s-5-9.24-14.46-16-18.36-10.47-19.85-8.37S391.63,329.29,401.1,336Z" transform="translate(-62.42 -192.42)"/><polygon class="cls-16" points="143.16 57.02 134.61 74.84 142.09 80.55 143.16 57.02"/><path class="cls-17" d="M207.36,237.32S188.12,304,225.54,295.06l2.14,21.74,28.87,2.85,1.07-31s10-64.16,5-70.21S216.27,201.33,207.36,237.32Z" transform="translate(-62.42 -192.42)"/><path class="cls-16" d="M212.21,237.32S192,304,225.54,295.06l.87,23.39,29.93,1.2,1-31s8.95-64.16,4.48-70.21S220.21,201.33,212.21,237.32Z" transform="translate(-62.42 -192.42)"/><path class="cls-18" d="M272.59,219.5a18.13,18.13,0,0,0-13.74-7.37c-.62-10.79-16.55-11.4-29-9-16.64,3.17-31-10.69-31-10.69-4.28,15,4.28,22.09,4.28,22.09-3.92-.71-9.27-8.19-9.27-8.19-2.14,16,13.9,26.37,13.9,26.37-1.07,8.2,5,13.9,5,13.9l.71,18.53h3.21a29.28,29.28,0,0,1,1.78-12.47c2.5-6.77,8.91-.71,7.84,10.34s-7.12,6.41-7.12,6.41c1.06,8.55,12.11,21,12.11,21h26C283.28,248,279.36,228.41,272.59,219.5Z" transform="translate(-62.42 -192.42)"/><path class="cls-19" d="M210.62,244c2.6-10.2,8-19.9,15.88-26.4,8.34-6.89,19.22-12.07,30.1-11-4.91-5.4-16.92-5.39-26.78-3.51-16.64,3.17-31-10.69-31-10.69-4.28,15,4.28,22.09,4.28,22.09-3.92-.71-9.27-8.19-9.27-8.19-2.14,16,13.9,26.37,13.9,26.37A16.53,16.53,0,0,0,210.62,244Z" transform="translate(-62.42 -192.42)"/><path class="cls-16" d="M224.41,255.38a10.87,10.87,0,0,0-1.08-1,3,3,0,0,0-1.12-.62c-.36-.08-.45,0-.63.26a2.45,2.45,0,0,0-.24.46l-.18.59,0-.17c-.08,1.42-.17,2.84-.34,4.25s-.37,2.82-.62,4.22l-.61-.9a6.26,6.26,0,0,1,1.55.78,2.84,2.84,0,0,1,1.24,1.46,1.54,1.54,0,0,1,0,1.08,2.17,2.17,0,0,1-.56.75,5.91,5.91,0,0,1-.69.46l-.74.31a7.23,7.23,0,0,0,1-1.18.91.91,0,0,0,.09-1,2.34,2.34,0,0,0-.94-.64,7.67,7.67,0,0,0-1.29-.4l-.65-.16,0-.75c.07-1.42.18-2.84.35-4.25s.39-2.82.64-4.22l0-.15,0,0,.39-.76a3.32,3.32,0,0,1,.6-.73,1.68,1.68,0,0,1,1-.47,1.3,1.3,0,0,1,.56,0,1.54,1.54,0,0,1,.47.18,3.54,3.54,0,0,1,1.16,1.19A6.12,6.12,0,0,1,224.41,255.38Z" transform="translate(-62.42 -192.42)"/><path class="cls-1" d="M368.94,393.27s-2.14,5.65.78,7.4,20.46,1.56,21-3.7-3.7-10.91-9-12.27S368.94,393.27,368.94,393.27Z" transform="translate(-62.42 -192.42)"/><path class="cls-2" d="M387.83,388.57a9.52,9.52,0,0,1,.21,3.14c-.53,4.73-14.76,5.37-19.75,4.17-.25,1.72-.16,3.84,1.43,4.79,2.92,1.76,20.46,1.56,21-3.7A11.27,11.27,0,0,0,387.83,388.57Z" transform="translate(-62.42 -192.42)"/><path class="cls-17" d="M357.83,385.09s13.84-8.38,15.79-7.8,3.89,1.37,3.89,1.37,2.73-1.56,4.49-.78,9.74,3.89,8.37,5.84-5.84.39-5.84.39,5.65,1.37,6.62,2.54a2.09,2.09,0,0,1-2.14,2.53c-2.53,0-8.38-2.15-8.38-2.15S373,397,367.19,397,357.83,385.09,357.83,385.09Z" transform="translate(-62.42 -192.42)"/><path class="cls-17" d="M159.74,383.79s-12-8.38-13.73-7.8-3.39,1.37-3.39,1.37-2.37-1.56-3.9-.78-8.48,3.9-7.29,5.84,5.09.39,5.09.39-4.92,1.37-5.77,2.54c0,0-.34,2.53,1.87,2.53s7.29-2.14,7.29-2.14,6.61,9.93,11.7,9.93S159.74,383.79,159.74,383.79Z" transform="translate(-62.42 -192.42)"/><path class="cls-10" d="M359.2,380.25c-5.35,0-31.19,9.44-31.19,9.44s-19.25-55.6-35.29-71.64-67.89-11.23-92.48-6.95c-15.6,2.71-26,23.42-30.82,73.11-10.25-5.34-15.12-7.42-19.48-6.33-11.69,2.92-8.77,17.05-8.77,17.05s19.3,14.42,26.79,16.56c4.57,1.31,16.4,16.72,24.84-38.48-.49,13.15-6.49,39.61-1.12,68.53l104.78,9.63s-3.63-38.37-4.94-67.77c8.4,9,17.84,33.19,27.28,33.77,7.77.48,38.79-9.12,46.28-13.4S364.54,380.25,359.2,380.25Z" transform="translate(-62.42 -192.42)"/><path class="cls-14" d="M363,384.81c-5.35,0-33.05,10.8-33.05,10.8s-.68-2.24-1.9-5.94l0,0S312,343.31,297,323.05l-.43-.44c-16-16-67.89-11.23-92.48-6.95-15.6,2.71-25.95,23.43-30.82,73.11a180.37,180.37,0,0,0-24.88-10.38c-9.81,3.76-7.17,16.54-7.17,16.54s19.3,14.42,26.79,16.56c4.57,1.31,16.4,16.72,24.84-38.48-.49,13.15-6.49,39.61-1.12,68.53l104.78,9.63s-3.63-38.37-4.94-67.77c8.4,9,17.84,33.19,27.28,33.77,7.77.48,38.79-9.12,46.28-13.4,5-2.85,3.09-12.31-.3-18.34A3.39,3.39,0,0,0,363,384.81Z" transform="translate(-62.42 -192.42)"/><path class="cls-18" d="M317.77,500h48.6c6.29-12.86,11.92-26.54,11.35-29.59-5.34-28.87-82.3-35.7-82.3-35.7-10.66,3.29-18,5.83-29.26,7.14-24,2.78-48.06,1.9-72.06.12,1.24,11.5,3.07,21.75,5.72,28.44h86.55C298.14,477.25,308.51,489.06,317.77,500Z" transform="translate(-62.42 -192.42)"/><rect class="cls-1" x="110.77" y="269.44" width="164.98" height="38.72" rx="10.69"/><path class="cls-20" d="M290.05,490c0,5.85-4.32,10.6-9.64,10.6H182.83c-5.32,0-9.64-4.75-9.64-10.6V473.44c0-5.85,4.32-10.6,9.64-10.6h97.58c5.32,0,9.64,4.75,9.64,10.6Z" transform="translate(-62.42 -192.42)"/><rect class="cls-1" x="118.18" y="141.14" width="110.13" height="91.45" rx="9.83"/><rect class="cls-20" x="118.18" y="150.89" width="99.31" height="81.69" rx="8.87"/><path class="cls-21" d="M241.71,500V393A9.35,9.35,0,0,0,223,393V500Z" transform="translate(-62.42 -192.42)"/><path class="cls-9" d="M237.37,500h4.34V393a9.33,9.33,0,0,0-5.28-8.4,9.35,9.35,0,0,1,.94,4.06Z" transform="translate(-62.42 -192.42)"/></svg>