<svg id="Layer_1" data-name="Layer 1" xmlns="http://www.w3.org/2000/svg" viewBox="0 0 2500 2500"><defs><style>.cls-1{fill:#007acc;}.cls-2{fill:#fff;}</style></defs><title>typescript</title><path class="cls-1" d="M0,1250V0H2500V2500H0"/><path class="cls-2" d="M1640.75,1563.22c129.22,129.36,127.45,336.75.78,464.12-.24.26-.52.55-.78.8L1495.4,2173.49c-128.19,128.19-336.75,128.17-464.92,0s-128.19-336.76,0-464.93l80.26-80.25c21.28-21.28,57.93-7.14,59,22.94a398.28,398.28,0,0,0,21,114,34.82,34.82,0,0,1-8.19,35.93l-28.3,28.3c-60.62,60.62-62.52,159.31-2.5,220.52,60.61,61.81,160.24,62.18,221.31,1.11l145.35-145.33a155.69,155.69,0,0,0,0-220.24A162.4,162.4,0,0,0,1496,1667a34.69,34.69,0,0,1-15-27.26,86.19,86.19,0,0,1,25.31-64.47l45.53-45.54a34.74,34.74,0,0,1,44.52-3.74,330.1,330.1,0,0,1,44.39,37.19Zm304.82-304.83c-128.18-128.18-336.74-128.19-464.93,0L1335.3,1403.73c-.26.26-.54.54-.78.8-126.67,127.37-128.44,334.77.78,464.12a330.71,330.71,0,0,0,44.38,37.2,34.75,34.75,0,0,0,44.52-3.75l45.54-45.54a86.13,86.13,0,0,0,25.3-64.46,34.71,34.71,0,0,0-15-27.27,161.67,161.67,0,0,1-22.37-18.53,155.68,155.68,0,0,1,0-220.24L1603,1380.74c61.08-61.08,160.7-60.71,221.31,1.1,60,61.21,58.12,159.91-2.49,220.52l-28.31,28.31a34.79,34.79,0,0,0-8.18,35.93,398.49,398.49,0,0,1,21,114c1.1,30.08,37.75,44.22,59,22.94l80.25-80.25c128.2-128.17,128.2-336.75,0-464.92Z"/></svg>