<?xml version="1.0"?>
<svg xmlns="http://www.w3.org/2000/svg" id="Layer_1" enable-background="new 0 0 512 512" height="512px" viewBox="0 0 512 512" width="512px" class=""><g><g><g><path d="m256 395c-76.645 0-139-62.355-139-139s62.355-139 139-139 139 62.355 139 139-62.355 139-139 139z" fill="#fdbf00" data-original="#FDBF00" class="active-path" style="fill:#FED42D" data-old_color="#fdbf00"/></g><g><path d="m256 81.643c-8.284 0-15-6.716-15-15v-51.643c0-8.284 6.716-15 15-15s15 6.716 15 15v51.643c0 8.284-6.716 15-15 15z" fill="#fdbf00" data-original="#FDBF00" class="active-path" style="fill:#FED42D" data-old_color="#fdbf00"/></g><g><path d="m497 271h-51.643c-8.284 0-15-6.716-15-15s6.716-15 15-15h51.643c8.284 0 15 6.716 15 15s-6.716 15-15 15z" fill="#ff8856" data-original="#FF8856" class="" style="fill:#FCBF29" data-old_color="#ff8856"/></g><g><path d="m256 512c-8.284 0-15-6.716-15-15v-51.643c0-8.284 6.716-15 15-15s15 6.716 15 15v51.643c0 8.284-6.716 15-15 15z" fill="#fdbf00" data-original="#FDBF00" class="active-path" style="fill:#FED42D" data-old_color="#fdbf00"/></g><g><path d="m66.643 271h-51.643c-8.284 0-15-6.716-15-15s6.716-15 15-15h51.643c8.284 0 15 6.716 15 15s-6.716 15-15 15z" fill="#fdbf00" data-original="#FDBF00" class="active-path" style="fill:#FED42D" data-old_color="#fdbf00"/></g><g><path d="m389.896 137.104c-3.839 0-7.678-1.464-10.606-4.394-5.858-5.857-5.858-15.355 0-21.213l36.517-36.517c5.857-5.858 15.355-5.858 21.213 0 5.858 5.857 5.858 15.355 0 21.213l-36.517 36.517c-2.929 2.93-6.768 4.394-10.607 4.394z" fill="#ff8856" data-original="#FF8856" class="" style="fill:#FCBF29" data-old_color="#ff8856"/></g><g><path d="m426.413 441.413c-3.839 0-7.678-1.464-10.606-4.393l-36.518-36.517c-5.858-5.857-5.858-15.355 0-21.213 5.857-5.857 15.355-5.858 21.213 0l36.518 36.517c5.858 5.857 5.858 15.355 0 21.213-2.929 2.928-6.768 4.393-10.607 4.393z" fill="#ff8856" data-original="#FF8856" class="" style="fill:#FCBF29" data-old_color="#ff8856"/></g><g><path d="m85.587 441.413c-3.839 0-7.678-1.464-10.606-4.394-5.858-5.857-5.858-15.355 0-21.213l36.517-36.517c5.857-5.858 15.355-5.858 21.213 0 5.858 5.857 5.858 15.355 0 21.213l-36.517 36.517c-2.929 2.929-6.768 4.394-10.607 4.394z" fill="#fdbf00" data-original="#FDBF00" class="active-path" style="fill:#FED42D" data-old_color="#fdbf00"/></g><g><path d="m122.104 137.104c-3.839 0-7.678-1.464-10.606-4.394l-36.518-36.517c-5.858-5.857-5.858-15.355 0-21.213 5.857-5.858 15.355-5.858 21.213 0l36.518 36.517c5.858 5.857 5.858 15.355 0 21.213-2.929 2.93-6.768 4.394-10.607 4.394z" fill="#fdbf00" data-original="#FDBF00" class="active-path" style="fill:#FED42D" data-old_color="#fdbf00"/></g><g><path d="m328.663 96.146c-1.919 0-3.868-.37-5.751-1.152-7.649-3.179-11.273-11.958-8.095-19.608l19.818-47.688c3.181-7.651 11.959-11.273 19.608-8.095 7.649 3.179 11.273 11.958 8.095 19.608l-19.818 47.688c-2.397 5.767-7.978 9.247-13.857 9.247z" fill="#ff8856" data-original="#FF8856" class="" style="fill:#FCBF29" data-old_color="#ff8856"/></g><g><path d="m478.541 363.492c-1.919 0-3.868-.37-5.751-1.152l-47.688-19.818c-7.649-3.179-11.273-11.958-8.095-19.608 3.18-7.651 11.957-11.274 19.608-8.095l47.688 19.818c7.65 3.179 11.274 11.958 8.096 19.608-2.398 5.767-7.979 9.247-13.858 9.247z" fill="#ff8856" data-original="#FF8856" class="" style="fill:#FCBF29" data-old_color="#ff8856"/></g><g><path d="m163.507 493.551c-1.919 0-3.868-.37-5.751-1.152-7.649-3.179-11.273-11.958-8.095-19.608l19.818-47.688c3.18-7.651 11.957-11.273 19.608-8.095 7.649 3.179 11.273 11.958 8.095 19.608l-19.818 47.688c-2.397 5.767-7.978 9.247-13.857 9.247z" fill="#fdbf00" data-original="#FDBF00" class="active-path" style="fill:#FED42D" data-old_color="#fdbf00"/></g><g><path d="m81.136 198.334c-1.919 0-3.868-.37-5.751-1.152l-47.688-19.818c-7.65-3.179-11.274-11.958-8.096-19.608 3.18-7.65 11.958-11.272 19.608-8.095l47.688 19.818c7.649 3.179 11.273 11.958 8.095 19.608-2.396 5.768-7.977 9.247-13.856 9.247z" fill="#fdbf00" data-original="#FDBF00" class="active-path" style="fill:#FED42D" data-old_color="#fdbf00"/></g><g><path d="m431.034 198.745c-5.893 0-11.482-3.495-13.871-9.28-3.161-7.658.484-16.428 8.142-19.589l47.734-19.707c7.655-3.161 16.427.483 19.589 8.141 3.161 7.658-.484 16.428-8.142 19.589l-47.734 19.707c-1.872.773-3.811 1.139-5.718 1.139z" fill="#ff8856" data-original="#FF8856" class="" style="fill:#FCBF29" data-old_color="#ff8856"/></g><g><path d="m347.972 493.767c-5.893 0-11.482-3.495-13.871-9.28l-19.707-47.735c-3.161-7.658.483-16.428 8.142-19.589 7.656-3.161 16.428.483 19.589 8.141l19.707 47.735c3.161 7.657-.483 16.428-8.142 19.589-1.873.773-3.811 1.139-5.718 1.139z" fill="#ff8856" data-original="#FF8856" class="" style="fill:#FCBF29" data-old_color="#ff8856"/></g><g><path d="m33.242 362.969c-5.894 0-11.482-3.495-13.871-9.28-3.161-7.658.484-16.428 8.142-19.589l47.735-19.707c7.66-3.163 16.428.484 19.589 8.141s-.484 16.427-8.142 19.588l-47.735 19.708c-1.872.773-3.812 1.139-5.718 1.139z" fill="#fdbf00" data-original="#FDBF00" class="active-path" style="fill:#FED42D" data-old_color="#fdbf00"/></g><g><path d="m183.747 95.976c-5.893 0-11.482-3.495-13.871-9.28l-19.707-47.735c-3.161-7.657.483-16.428 8.142-19.589 7.655-3.161 16.427.483 19.589 8.141l19.707 47.735c3.161 7.658-.483 16.428-8.142 19.589-1.872.772-3.811 1.139-5.718 1.139z" fill="#fdbf00" data-original="#FDBF00" class="active-path" style="fill:#FED42D" data-old_color="#fdbf00"/></g><g fill="#ff8856"><path d="m256 0v81.643c8.284 0 15-6.716 15-15v-51.643c0-8.284-6.716-15-15-15z" data-original="#FF8856" class="" style="fill:#FCBF29" data-old_color="#FF8856"/><path d="m256 117v278c76.645 0 139-62.355 139-139s-62.355-139-139-139z" data-original="#FF8856" class="" style="fill:#FCBF29" data-old_color="#FF8856"/><path d="m256 430.357v81.643c8.284 0 15-6.716 15-15v-51.643c0-8.284-6.716-15-15-15z" data-original="#FF8856" class="" style="fill:#FCBF29" data-old_color="#FF8856"/></g></g></g> </svg>
